<?xml version="1.0" encoding="UTF-8" standalone="no"?>
<!DOCTYPE svg PUBLIC "-//W3C//DTD SVG 1.1//EN"
 "http://www.w3.org/Graphics/SVG/1.1/DTD/svg11.dtd">
<!-- Generated by graphviz version 2.47.3 (20210619.2315)
 -->
<!-- Title: Tree Pages: 1 -->
<svg width="969pt" height="433pt"
 viewBox="0.00 0.00 969.00 433.00" xmlns="http://www.w3.org/2000/svg" xmlns:xlink="http://www.w3.org/1999/xlink">
<g id="graph0" class="graph" transform="scale(1 1) rotate(0) translate(4 429)">
<title>Tree</title>
<polygon fill="white" stroke="transparent" points="-4,4 -4,-429 965,-429 965,4 -4,4"/>
<!-- 0 -->
<g id="node1" class="node">
<title>0</title>
<path fill="#cbe5f8" stroke="black" d="M537.5,-425C537.5,-425 436.5,-425 436.5,-425 430.5,-425 424.5,-419 424.5,-413 424.5,-413 424.5,-354 424.5,-354 424.5,-348 430.5,-342 436.5,-342 436.5,-342 537.5,-342 537.5,-342 543.5,-342 549.5,-348 549.5,-354 549.5,-354 549.5,-413 549.5,-413 549.5,-419 543.5,-425 537.5,-425"/>
<text text-anchor="middle" x="487" y="-409.8" font-family="Helvetica,sans-Serif" font-size="14.00">LSTAT &lt;= 14.115</text>
<text text-anchor="middle" x="487" y="-394.8" font-family="Helvetica,sans-Serif" font-size="14.00">gini = 0.489</text>
<text text-anchor="middle" x="487" y="-379.8" font-family="Helvetica,sans-Serif" font-size="14.00">samples = 506</text>
<text text-anchor="middle" x="487" y="-364.8" font-family="Helvetica,sans-Serif" font-size="14.00">value = [215, 291]</text>
<text text-anchor="middle" x="487" y="-349.8" font-family="Helvetica,sans-Serif" font-size="14.00">class = high</text>
</g>
<!-- 1 -->
<g id="node2" class="node">
<title>1</title>
<path fill="#5fb0ea" stroke="black" d="M413.5,-306C413.5,-306 320.5,-306 320.5,-306 314.5,-306 308.5,-300 308.5,-294 308.5,-294 308.5,-235 308.5,-235 308.5,-229 314.5,-223 320.5,-223 320.5,-223 413.5,-223 413.5,-223 419.5,-223 425.5,-229 425.5,-235 425.5,-235 425.5,-294 425.5,-294 425.5,-300 419.5,-306 413.5,-306"/>
<text text-anchor="middle" x="367" y="-290.8" font-family="Helvetica,sans-Serif" font-size="14.00">RM &lt;= 6.034</text>
<text text-anchor="middle" x="367" y="-275.8" font-family="Helvetica,sans-Serif" font-size="14.00">gini = 0.272</text>
<text text-anchor="middle" x="367" y="-260.8" font-family="Helvetica,sans-Serif" font-size="14.00">samples = 321</text>
<text text-anchor="middle" x="367" y="-245.8" font-family="Helvetica,sans-Serif" font-size="14.00">value = [52, 269]</text>
<text text-anchor="middle" x="367" y="-230.8" font-family="Helvetica,sans-Serif" font-size="14.00">class = high</text>
</g>
<!-- 0&#45;&gt;1 -->
<g id="edge1" class="edge">
<title>0&#45;&gt;1</title>
<path fill="none" stroke="black" d="M445.37,-341.91C435.87,-332.65 425.7,-322.73 415.93,-313.21"/>
<polygon fill="black" stroke="black" points="418.16,-310.5 408.56,-306.02 413.28,-315.51 418.16,-310.5"/>
<text text-anchor="middle" x="408.88" y="-327.32" font-family="Helvetica,sans-Serif" font-size="14.00">True</text>
</g>
<!-- 8 -->
<g id="node9" class="node">
<title>8</title>
<path fill="#e99254" stroke="black" d="M652.5,-306C652.5,-306 559.5,-306 559.5,-306 553.5,-306 547.5,-300 547.5,-294 547.5,-294 547.5,-235 547.5,-235 547.5,-229 553.5,-223 559.5,-223 559.5,-223 652.5,-223 652.5,-223 658.5,-223 664.5,-229 664.5,-235 664.5,-235 664.5,-294 664.5,-294 664.5,-300 658.5,-306 652.5,-306"/>
<text text-anchor="middle" x="606" y="-290.8" font-family="Helvetica,sans-Serif" font-size="14.00">TAX &lt;= 300.0</text>
<text text-anchor="middle" x="606" y="-275.8" font-family="Helvetica,sans-Serif" font-size="14.00">gini = 0.21</text>
<text text-anchor="middle" x="606" y="-260.8" font-family="Helvetica,sans-Serif" font-size="14.00">samples = 185</text>
<text text-anchor="middle" x="606" y="-245.8" font-family="Helvetica,sans-Serif" font-size="14.00">value = [163, 22]</text>
<text text-anchor="middle" x="606" y="-230.8" font-family="Helvetica,sans-Serif" font-size="14.00">class = low</text>
</g>
<!-- 0&#45;&gt;8 -->
<g id="edge8" class="edge">
<title>0&#45;&gt;8</title>
<path fill="none" stroke="black" d="M528.29,-341.91C537.7,-332.65 547.79,-322.73 557.48,-313.21"/>
<polygon fill="black" stroke="black" points="560.11,-315.53 564.79,-306.02 555.2,-310.54 560.11,-315.53"/>
<text text-anchor="middle" x="564.57" y="-327.32" font-family="Helvetica,sans-Serif" font-size="14.00">False</text>
</g>
<!-- 2 -->
<g id="node3" class="node">
<title>2</title>
<path fill="#e3f1fb" stroke="black" d="M222,-187C222,-187 136,-187 136,-187 130,-187 124,-181 124,-175 124,-175 124,-116 124,-116 124,-110 130,-104 136,-104 136,-104 222,-104 222,-104 228,-104 234,-110 234,-116 234,-116 234,-175 234,-175 234,-181 228,-187 222,-187"/>
<text text-anchor="middle" x="179" y="-171.8" font-family="Helvetica,sans-Serif" font-size="14.00">DIS &lt;= 4.714</text>
<text text-anchor="middle" x="179" y="-156.8" font-family="Helvetica,sans-Serif" font-size="14.00">gini = 0.497</text>
<text text-anchor="middle" x="179" y="-141.8" font-family="Helvetica,sans-Serif" font-size="14.00">samples = 78</text>
<text text-anchor="middle" x="179" y="-126.8" font-family="Helvetica,sans-Serif" font-size="14.00">value = [36, 42]</text>
<text text-anchor="middle" x="179" y="-111.8" font-family="Helvetica,sans-Serif" font-size="14.00">class = high</text>
</g>
<!-- 1&#45;&gt;2 -->
<g id="edge2" class="edge">
<title>1&#45;&gt;2</title>
<path fill="none" stroke="black" d="M308.29,-226.96C287.46,-214 263.92,-199.35 242.69,-186.14"/>
<polygon fill="black" stroke="black" points="244.4,-183.08 234.06,-180.77 240.7,-189.02 244.4,-183.08"/>
</g>
<!-- 5 -->
<g id="node6" class="node">
<title>5</title>
<path fill="#47a4e7" stroke="black" d="M416.5,-187C416.5,-187 317.5,-187 317.5,-187 311.5,-187 305.5,-181 305.5,-175 305.5,-175 305.5,-116 305.5,-116 305.5,-110 311.5,-104 317.5,-104 317.5,-104 416.5,-104 416.5,-104 422.5,-104 428.5,-110 428.5,-116 428.5,-116 428.5,-175 428.5,-175 428.5,-181 422.5,-187 416.5,-187"/>
<text text-anchor="middle" x="367" y="-171.8" font-family="Helvetica,sans-Serif" font-size="14.00">LSTAT &lt;= 11.815</text>
<text text-anchor="middle" x="367" y="-156.8" font-family="Helvetica,sans-Serif" font-size="14.00">gini = 0.123</text>
<text text-anchor="middle" x="367" y="-141.8" font-family="Helvetica,sans-Serif" font-size="14.00">samples = 243</text>
<text text-anchor="middle" x="367" y="-126.8" font-family="Helvetica,sans-Serif" font-size="14.00">value = [16, 227]</text>
<text text-anchor="middle" x="367" y="-111.8" font-family="Helvetica,sans-Serif" font-size="14.00">class = high</text>
</g>
<!-- 1&#45;&gt;5 -->
<g id="edge5" class="edge">
<title>1&#45;&gt;5</title>
<path fill="none" stroke="black" d="M367,-222.91C367,-214.65 367,-205.86 367,-197.3"/>
<polygon fill="black" stroke="black" points="370.5,-197.02 367,-187.02 363.5,-197.02 370.5,-197.02"/>
</g>
<!-- 3 -->
<g id="node4" class="node">
<title>3</title>
<path fill="#96cbf1" stroke="black" d="M98,-68C98,-68 12,-68 12,-68 6,-68 0,-62 0,-56 0,-56 0,-12 0,-12 0,-6 6,0 12,0 12,0 98,0 98,0 104,0 110,-6 110,-12 110,-12 110,-56 110,-56 110,-62 104,-68 98,-68"/>
<text text-anchor="middle" x="55" y="-52.8" font-family="Helvetica,sans-Serif" font-size="14.00">gini = 0.435</text>
<text text-anchor="middle" x="55" y="-37.8" font-family="Helvetica,sans-Serif" font-size="14.00">samples = 50</text>
<text text-anchor="middle" x="55" y="-22.8" font-family="Helvetica,sans-Serif" font-size="14.00">value = [16, 34]</text>
<text text-anchor="middle" x="55" y="-7.8" font-family="Helvetica,sans-Serif" font-size="14.00">class = high</text>
</g>
<!-- 2&#45;&gt;3 -->
<g id="edge3" class="edge">
<title>2&#45;&gt;3</title>
<path fill="none" stroke="black" d="M132.83,-103.73C122.19,-94.33 110.88,-84.35 100.28,-74.99"/>
<polygon fill="black" stroke="black" points="102.52,-72.3 92.71,-68.3 97.89,-77.54 102.52,-72.3"/>
</g>
<!-- 4 -->
<g id="node5" class="node">
<title>4</title>
<path fill="#efb388" stroke="black" d="M218,-68C218,-68 140,-68 140,-68 134,-68 128,-62 128,-56 128,-56 128,-12 128,-12 128,-6 134,0 140,0 140,0 218,0 218,0 224,0 230,-6 230,-12 230,-12 230,-56 230,-56 230,-62 224,-68 218,-68"/>
<text text-anchor="middle" x="179" y="-52.8" font-family="Helvetica,sans-Serif" font-size="14.00">gini = 0.408</text>
<text text-anchor="middle" x="179" y="-37.8" font-family="Helvetica,sans-Serif" font-size="14.00">samples = 28</text>
<text text-anchor="middle" x="179" y="-22.8" font-family="Helvetica,sans-Serif" font-size="14.00">value = [20, 8]</text>
<text text-anchor="middle" x="179" y="-7.8" font-family="Helvetica,sans-Serif" font-size="14.00">class = low</text>
</g>
<!-- 2&#45;&gt;4 -->
<g id="edge4" class="edge">
<title>2&#45;&gt;4</title>
<path fill="none" stroke="black" d="M179,-103.73C179,-95.52 179,-86.86 179,-78.56"/>
<polygon fill="black" stroke="black" points="182.5,-78.3 179,-68.3 175.5,-78.3 182.5,-78.3"/>
</g>
<!-- 6 -->
<g id="node7" class="node">
<title>6</title>
<path fill="#3e9fe6" stroke="black" d="M346,-68C346,-68 260,-68 260,-68 254,-68 248,-62 248,-56 248,-56 248,-12 248,-12 248,-6 254,0 260,0 260,0 346,0 346,0 352,0 358,-6 358,-12 358,-12 358,-56 358,-56 358,-62 352,-68 346,-68"/>
<text text-anchor="middle" x="303" y="-52.8" font-family="Helvetica,sans-Serif" font-size="14.00">gini = 0.045</text>
<text text-anchor="middle" x="303" y="-37.8" font-family="Helvetica,sans-Serif" font-size="14.00">samples = 216</text>
<text text-anchor="middle" x="303" y="-22.8" font-family="Helvetica,sans-Serif" font-size="14.00">value = [5, 211]</text>
<text text-anchor="middle" x="303" y="-7.8" font-family="Helvetica,sans-Serif" font-size="14.00">class = high</text>
</g>
<!-- 5&#45;&gt;6 -->
<g id="edge6" class="edge">
<title>5&#45;&gt;6</title>
<path fill="none" stroke="black" d="M343.17,-103.73C338.1,-95.06 332.75,-85.9 327.65,-77.18"/>
<polygon fill="black" stroke="black" points="330.53,-75.17 322.46,-68.3 324.49,-78.7 330.53,-75.17"/>
</g>
<!-- 7 -->
<g id="node8" class="node">
<title>7</title>
<path fill="#c1e0f7" stroke="black" d="M474,-68C474,-68 388,-68 388,-68 382,-68 376,-62 376,-56 376,-56 376,-12 376,-12 376,-6 382,0 388,0 388,0 474,0 474,0 480,0 486,-6 486,-12 486,-12 486,-56 486,-56 486,-62 480,-68 474,-68"/>
<text text-anchor="middle" x="431" y="-52.8" font-family="Helvetica,sans-Serif" font-size="14.00">gini = 0.483</text>
<text text-anchor="middle" x="431" y="-37.8" font-family="Helvetica,sans-Serif" font-size="14.00">samples = 27</text>
<text text-anchor="middle" x="431" y="-22.8" font-family="Helvetica,sans-Serif" font-size="14.00">value = [11, 16]</text>
<text text-anchor="middle" x="431" y="-7.8" font-family="Helvetica,sans-Serif" font-size="14.00">class = high</text>
</g>
<!-- 5&#45;&gt;7 -->
<g id="edge7" class="edge">
<title>5&#45;&gt;7</title>
<path fill="none" stroke="black" d="M390.83,-103.73C395.9,-95.06 401.25,-85.9 406.35,-77.18"/>
<polygon fill="black" stroke="black" points="409.51,-78.7 411.54,-68.3 403.47,-75.17 409.51,-78.7"/>
</g>
<!-- 9 -->
<g id="node10" class="node">
<title>9</title>
<path fill="#d1e8f9" stroke="black" d="M649,-187C649,-187 563,-187 563,-187 557,-187 551,-181 551,-175 551,-175 551,-116 551,-116 551,-110 557,-104 563,-104 563,-104 649,-104 649,-104 655,-104 661,-110 661,-116 661,-116 661,-175 661,-175 661,-181 655,-187 649,-187"/>
<text text-anchor="middle" x="606" y="-171.8" font-family="Helvetica,sans-Serif" font-size="14.00">AGE &lt;= 94.55</text>
<text text-anchor="middle" x="606" y="-156.8" font-family="Helvetica,sans-Serif" font-size="14.00">gini = 0.491</text>
<text text-anchor="middle" x="606" y="-141.8" font-family="Helvetica,sans-Serif" font-size="14.00">samples = 23</text>
<text text-anchor="middle" x="606" y="-126.8" font-family="Helvetica,sans-Serif" font-size="14.00">value = [10, 13]</text>
<text text-anchor="middle" x="606" y="-111.8" font-family="Helvetica,sans-Serif" font-size="14.00">class = high</text>
</g>
<!-- 8&#45;&gt;9 -->
<g id="edge9" class="edge">
<title>8&#45;&gt;9</title>
<path fill="none" stroke="black" d="M606,-222.91C606,-214.65 606,-205.86 606,-197.3"/>
<polygon fill="black" stroke="black" points="609.5,-197.02 606,-187.02 602.5,-197.02 609.5,-197.02"/>
</g>
<!-- 12 -->
<g id="node13" class="node">
<title>12</title>
<path fill="#e78845" stroke="black" d="M828,-187C828,-187 742,-187 742,-187 736,-187 730,-181 730,-175 730,-175 730,-116 730,-116 730,-110 736,-104 742,-104 742,-104 828,-104 828,-104 834,-104 840,-110 840,-116 840,-116 840,-175 840,-175 840,-181 834,-187 828,-187"/>
<text text-anchor="middle" x="785" y="-171.8" font-family="Helvetica,sans-Serif" font-size="14.00">AGE &lt;= 43.3</text>
<text text-anchor="middle" x="785" y="-156.8" font-family="Helvetica,sans-Serif" font-size="14.00">gini = 0.105</text>
<text text-anchor="middle" x="785" y="-141.8" font-family="Helvetica,sans-Serif" font-size="14.00">samples = 162</text>
<text text-anchor="middle" x="785" y="-126.8" font-family="Helvetica,sans-Serif" font-size="14.00">value = [153, 9]</text>
<text text-anchor="middle" x="785" y="-111.8" font-family="Helvetica,sans-Serif" font-size="14.00">class = low</text>
</g>
<!-- 8&#45;&gt;12 -->
<g id="edge12" class="edge">
<title>8&#45;&gt;12</title>
<path fill="none" stroke="black" d="M664.61,-225.19C682.83,-213.28 702.99,-200.11 721.52,-188"/>
<polygon fill="black" stroke="black" points="723.45,-190.91 729.9,-182.51 719.62,-185.06 723.45,-190.91"/>
</g>
<!-- 10 -->
<g id="node11" class="node">
<title>10</title>
<path fill="#85c3ef" stroke="black" d="M594,-68C594,-68 516,-68 516,-68 510,-68 504,-62 504,-56 504,-56 504,-12 504,-12 504,-6 510,0 516,0 516,0 594,0 594,0 600,0 606,-6 606,-12 606,-12 606,-56 606,-56 606,-62 600,-68 594,-68"/>
<text text-anchor="middle" x="555" y="-52.8" font-family="Helvetica,sans-Serif" font-size="14.00">gini = 0.401</text>
<text text-anchor="middle" x="555" y="-37.8" font-family="Helvetica,sans-Serif" font-size="14.00">samples = 18</text>
<text text-anchor="middle" x="555" y="-22.8" font-family="Helvetica,sans-Serif" font-size="14.00">value = [5, 13]</text>
<text text-anchor="middle" x="555" y="-7.8" font-family="Helvetica,sans-Serif" font-size="14.00">class = high</text>
</g>
<!-- 9&#45;&gt;10 -->
<g id="edge10" class="edge">
<title>9&#45;&gt;10</title>
<path fill="none" stroke="black" d="M587.01,-103.73C583.02,-95.15 578.79,-86.09 574.77,-77.46"/>
<polygon fill="black" stroke="black" points="577.9,-75.89 570.51,-68.3 571.56,-78.84 577.9,-75.89"/>
</g>
<!-- 11 -->
<g id="node12" class="node">
<title>11</title>
<path fill="#e58139" stroke="black" d="M707.5,-68C707.5,-68 636.5,-68 636.5,-68 630.5,-68 624.5,-62 624.5,-56 624.5,-56 624.5,-12 624.5,-12 624.5,-6 630.5,0 636.5,0 636.5,0 707.5,0 707.5,0 713.5,0 719.5,-6 719.5,-12 719.5,-12 719.5,-56 719.5,-56 719.5,-62 713.5,-68 707.5,-68"/>
<text text-anchor="middle" x="672" y="-52.8" font-family="Helvetica,sans-Serif" font-size="14.00">gini = 0.0</text>
<text text-anchor="middle" x="672" y="-37.8" font-family="Helvetica,sans-Serif" font-size="14.00">samples = 5</text>
<text text-anchor="middle" x="672" y="-22.8" font-family="Helvetica,sans-Serif" font-size="14.00">value = [5, 0]</text>
<text text-anchor="middle" x="672" y="-7.8" font-family="Helvetica,sans-Serif" font-size="14.00">class = low</text>
</g>
<!-- 9&#45;&gt;11 -->
<g id="edge11" class="edge">
<title>9&#45;&gt;11</title>
<path fill="none" stroke="black" d="M630.58,-103.73C635.85,-94.97 641.44,-85.7 646.74,-76.91"/>
<polygon fill="black" stroke="black" points="649.76,-78.67 651.93,-68.3 643.77,-75.06 649.76,-78.67"/>
</g>
<!-- 13 -->
<g id="node14" class="node">
<title>13</title>
<path fill="#399de5" stroke="black" d="M820.5,-68C820.5,-68 749.5,-68 749.5,-68 743.5,-68 737.5,-62 737.5,-56 737.5,-56 737.5,-12 737.5,-12 737.5,-6 743.5,0 749.5,0 749.5,0 820.5,0 820.5,0 826.5,0 832.5,-6 832.5,-12 832.5,-12 832.5,-56 832.5,-56 832.5,-62 826.5,-68 820.5,-68"/>
<text text-anchor="middle" x="785" y="-52.8" font-family="Helvetica,sans-Serif" font-size="14.00">gini = 0.0</text>
<text text-anchor="middle" x="785" y="-37.8" font-family="Helvetica,sans-Serif" font-size="14.00">samples = 2</text>
<text text-anchor="middle" x="785" y="-22.8" font-family="Helvetica,sans-Serif" font-size="14.00">value = [0, 2]</text>
<text text-anchor="middle" x="785" y="-7.8" font-family="Helvetica,sans-Serif" font-size="14.00">class = high</text>
</g>
<!-- 12&#45;&gt;13 -->
<g id="edge13" class="edge">
<title>12&#45;&gt;13</title>
<path fill="none" stroke="black" d="M785,-103.73C785,-95.52 785,-86.86 785,-78.56"/>
<polygon fill="black" stroke="black" points="788.5,-78.3 785,-68.3 781.5,-78.3 788.5,-78.3"/>
</g>
<!-- 14 -->
<g id="node15" class="node">
<title>14</title>
<path fill="#e68742" stroke="black" d="M949,-68C949,-68 863,-68 863,-68 857,-68 851,-62 851,-56 851,-56 851,-12 851,-12 851,-6 857,0 863,0 863,0 949,0 949,0 955,0 961,-6 961,-12 961,-12 961,-56 961,-56 961,-62 955,-68 949,-68"/>
<text text-anchor="middle" x="906" y="-52.8" font-family="Helvetica,sans-Serif" font-size="14.00">gini = 0.084</text>
<text text-anchor="middle" x="906" y="-37.8" font-family="Helvetica,sans-Serif" font-size="14.00">samples = 160</text>
<text text-anchor="middle" x="906" y="-22.8" font-family="Helvetica,sans-Serif" font-size="14.00">value = [153, 7]</text>
<text text-anchor="middle" x="906" y="-7.8" font-family="Helvetica,sans-Serif" font-size="14.00">class = low</text>
</g>
<!-- 12&#45;&gt;14 -->
<g id="edge14" class="edge">
<title>12&#45;&gt;14</title>
<path fill="none" stroke="black" d="M830.06,-103.73C840.34,-94.42 851.25,-84.54 861.51,-75.26"/>
<polygon fill="black" stroke="black" points="864.14,-77.6 869.2,-68.3 859.44,-72.41 864.14,-77.6"/>
</g>
</g>
</svg>
