<?xml version="1.0" encoding="utf-8" standalone="no"?>
<!DOCTYPE svg PUBLIC "-//W3C//DTD SVG 1.1//EN"
  "http://www.w3.org/Graphics/SVG/1.1/DTD/svg11.dtd">
<!-- Created with matplotlib (https://matplotlib.org/) -->
<svg height="277.35125pt" version="1.1" viewBox="0 0 392.14375 277.35125" width="392.14375pt" xmlns="http://www.w3.org/2000/svg" xmlns:xlink="http://www.w3.org/1999/xlink">
 <defs>
  <style type="text/css">
*{stroke-linecap:butt;stroke-linejoin:round;}
  </style>
 </defs>
 <g id="figure_1">
  <g id="patch_1">
   <path d="M 0 277.35125 
L 392.14375 277.35125 
L 392.14375 0 
L 0 0 
z
" style="fill:none;"/>
  </g>
  <g id="axes_1">
   <g id="patch_2">
    <path d="M 50.14375 240.795 
L 384.94375 240.795 
L 384.94375 23.355 
L 50.14375 23.355 
z
" style="fill:#ffffff;"/>
   </g>
   <g id="matplotlib.axis_1">
    <g id="xtick_1">
     <g id="line2d_1">
      <defs>
       <path d="M 0 0 
L 0 3.5 
" id="m403e9d5d33" style="stroke:#000000;stroke-width:0.8;"/>
      </defs>
      <g>
       <use style="stroke:#000000;stroke-width:0.8;" x="69.131578" xlink:href="#m403e9d5d33" y="240.795"/>
      </g>
     </g>
     <g id="text_1">
      <!-- −0.5 -->
      <defs>
       <path d="M 10.59375 35.5 
L 73.1875 35.5 
L 73.1875 27.203125 
L 10.59375 27.203125 
z
" id="DejaVuSans-8722"/>
       <path d="M 31.78125 66.40625 
Q 24.171875 66.40625 20.328125 58.90625 
Q 16.5 51.421875 16.5 36.375 
Q 16.5 21.390625 20.328125 13.890625 
Q 24.171875 6.390625 31.78125 6.390625 
Q 39.453125 6.390625 43.28125 13.890625 
Q 47.125 21.390625 47.125 36.375 
Q 47.125 51.421875 43.28125 58.90625 
Q 39.453125 66.40625 31.78125 66.40625 
z
M 31.78125 74.21875 
Q 44.046875 74.21875 50.515625 64.515625 
Q 56.984375 54.828125 56.984375 36.375 
Q 56.984375 17.96875 50.515625 8.265625 
Q 44.046875 -1.421875 31.78125 -1.421875 
Q 19.53125 -1.421875 13.0625 8.265625 
Q 6.59375 17.96875 6.59375 36.375 
Q 6.59375 54.828125 13.0625 64.515625 
Q 19.53125 74.21875 31.78125 74.21875 
z
" id="DejaVuSans-48"/>
       <path d="M 10.6875 12.40625 
L 21 12.40625 
L 21 0 
L 10.6875 0 
z
" id="DejaVuSans-46"/>
       <path d="M 10.796875 72.90625 
L 49.515625 72.90625 
L 49.515625 64.59375 
L 19.828125 64.59375 
L 19.828125 46.734375 
Q 21.96875 47.46875 24.109375 47.828125 
Q 26.265625 48.1875 28.421875 48.1875 
Q 40.625 48.1875 47.75 41.5 
Q 54.890625 34.8125 54.890625 23.390625 
Q 54.890625 11.625 47.5625 5.09375 
Q 40.234375 -1.421875 26.90625 -1.421875 
Q 22.3125 -1.421875 17.546875 -0.640625 
Q 12.796875 0.140625 7.71875 1.703125 
L 7.71875 11.625 
Q 12.109375 9.234375 16.796875 8.0625 
Q 21.484375 6.890625 26.703125 6.890625 
Q 35.15625 6.890625 40.078125 11.328125 
Q 45.015625 15.765625 45.015625 23.390625 
Q 45.015625 31 40.078125 35.4375 
Q 35.15625 39.890625 26.703125 39.890625 
Q 22.75 39.890625 18.8125 39.015625 
Q 14.890625 38.140625 10.796875 36.28125 
z
" id="DejaVuSans-53"/>
      </defs>
      <g transform="translate(56.990172 255.393437)scale(0.1 -0.1)">
       <use xlink:href="#DejaVuSans-8722"/>
       <use x="83.789062" xlink:href="#DejaVuSans-48"/>
       <use x="147.412109" xlink:href="#DejaVuSans-46"/>
       <use x="179.199219" xlink:href="#DejaVuSans-53"/>
      </g>
     </g>
    </g>
    <g id="xtick_2">
     <g id="line2d_2">
      <g>
       <use style="stroke:#000000;stroke-width:0.8;" x="142.241023" xlink:href="#m403e9d5d33" y="240.795"/>
      </g>
     </g>
     <g id="text_2">
      <!-- 0.0 -->
      <g transform="translate(134.28946 255.393437)scale(0.1 -0.1)">
       <use xlink:href="#DejaVuSans-48"/>
       <use x="63.623047" xlink:href="#DejaVuSans-46"/>
       <use x="95.410156" xlink:href="#DejaVuSans-48"/>
      </g>
     </g>
    </g>
    <g id="xtick_3">
     <g id="line2d_3">
      <g>
       <use style="stroke:#000000;stroke-width:0.8;" x="215.350467" xlink:href="#m403e9d5d33" y="240.795"/>
      </g>
     </g>
     <g id="text_3">
      <!-- 0.5 -->
      <g transform="translate(207.398904 255.393437)scale(0.1 -0.1)">
       <use xlink:href="#DejaVuSans-48"/>
       <use x="63.623047" xlink:href="#DejaVuSans-46"/>
       <use x="95.410156" xlink:href="#DejaVuSans-53"/>
      </g>
     </g>
    </g>
    <g id="xtick_4">
     <g id="line2d_4">
      <g>
       <use style="stroke:#000000;stroke-width:0.8;" x="288.459911" xlink:href="#m403e9d5d33" y="240.795"/>
      </g>
     </g>
     <g id="text_4">
      <!-- 1.0 -->
      <defs>
       <path d="M 12.40625 8.296875 
L 28.515625 8.296875 
L 28.515625 63.921875 
L 10.984375 60.40625 
L 10.984375 69.390625 
L 28.421875 72.90625 
L 38.28125 72.90625 
L 38.28125 8.296875 
L 54.390625 8.296875 
L 54.390625 0 
L 12.40625 0 
z
" id="DejaVuSans-49"/>
      </defs>
      <g transform="translate(280.508348 255.393437)scale(0.1 -0.1)">
       <use xlink:href="#DejaVuSans-49"/>
       <use x="63.623047" xlink:href="#DejaVuSans-46"/>
       <use x="95.410156" xlink:href="#DejaVuSans-48"/>
      </g>
     </g>
    </g>
    <g id="xtick_5">
     <g id="line2d_5">
      <g>
       <use style="stroke:#000000;stroke-width:0.8;" x="361.569355" xlink:href="#m403e9d5d33" y="240.795"/>
      </g>
     </g>
     <g id="text_5">
      <!-- 1.5 -->
      <g transform="translate(353.617792 255.393437)scale(0.1 -0.1)">
       <use xlink:href="#DejaVuSans-49"/>
       <use x="63.623047" xlink:href="#DejaVuSans-46"/>
       <use x="95.410156" xlink:href="#DejaVuSans-53"/>
      </g>
     </g>
    </g>
    <g id="text_6">
     <!-- 1e8 -->
     <defs>
      <path d="M 56.203125 29.59375 
L 56.203125 25.203125 
L 14.890625 25.203125 
Q 15.484375 15.921875 20.484375 11.0625 
Q 25.484375 6.203125 34.421875 6.203125 
Q 39.59375 6.203125 44.453125 7.46875 
Q 49.3125 8.734375 54.109375 11.28125 
L 54.109375 2.78125 
Q 49.265625 0.734375 44.1875 -0.34375 
Q 39.109375 -1.421875 33.890625 -1.421875 
Q 20.796875 -1.421875 13.15625 6.1875 
Q 5.515625 13.8125 5.515625 26.8125 
Q 5.515625 40.234375 12.765625 48.109375 
Q 20.015625 56 32.328125 56 
Q 43.359375 56 49.78125 48.890625 
Q 56.203125 41.796875 56.203125 29.59375 
z
M 47.21875 32.234375 
Q 47.125 39.59375 43.09375 43.984375 
Q 39.0625 48.390625 32.421875 48.390625 
Q 24.90625 48.390625 20.390625 44.140625 
Q 15.875 39.890625 15.1875 32.171875 
z
" id="DejaVuSans-101"/>
      <path d="M 31.78125 34.625 
Q 24.75 34.625 20.71875 30.859375 
Q 16.703125 27.09375 16.703125 20.515625 
Q 16.703125 13.921875 20.71875 10.15625 
Q 24.75 6.390625 31.78125 6.390625 
Q 38.8125 6.390625 42.859375 10.171875 
Q 46.921875 13.96875 46.921875 20.515625 
Q 46.921875 27.09375 42.890625 30.859375 
Q 38.875 34.625 31.78125 34.625 
z
M 21.921875 38.8125 
Q 15.578125 40.375 12.03125 44.71875 
Q 8.5 49.078125 8.5 55.328125 
Q 8.5 64.0625 14.71875 69.140625 
Q 20.953125 74.21875 31.78125 74.21875 
Q 42.671875 74.21875 48.875 69.140625 
Q 55.078125 64.0625 55.078125 55.328125 
Q 55.078125 49.078125 51.53125 44.71875 
Q 48 40.375 41.703125 38.8125 
Q 48.828125 37.15625 52.796875 32.3125 
Q 56.78125 27.484375 56.78125 20.515625 
Q 56.78125 9.90625 50.3125 4.234375 
Q 43.84375 -1.421875 31.78125 -1.421875 
Q 19.734375 -1.421875 13.25 4.234375 
Q 6.78125 9.90625 6.78125 20.515625 
Q 6.78125 27.484375 10.78125 32.3125 
Q 14.796875 37.15625 21.921875 38.8125 
z
M 18.3125 54.390625 
Q 18.3125 48.734375 21.84375 45.5625 
Q 25.390625 42.390625 31.78125 42.390625 
Q 38.140625 42.390625 41.71875 45.5625 
Q 45.3125 48.734375 45.3125 54.390625 
Q 45.3125 60.0625 41.71875 63.234375 
Q 38.140625 66.40625 31.78125 66.40625 
Q 25.390625 66.40625 21.84375 63.234375 
Q 18.3125 60.0625 18.3125 54.390625 
z
" id="DejaVuSans-56"/>
     </defs>
     <g transform="translate(366.065625 268.071562)scale(0.1 -0.1)">
      <use xlink:href="#DejaVuSans-49"/>
      <use x="63.623047" xlink:href="#DejaVuSans-101"/>
      <use x="125.146484" xlink:href="#DejaVuSans-56"/>
     </g>
    </g>
   </g>
   <g id="matplotlib.axis_2">
    <g id="ytick_1">
     <g id="line2d_6">
      <defs>
       <path d="M 0 0 
L -3.5 0 
" id="m04f9cfeaa1" style="stroke:#000000;stroke-width:0.8;"/>
      </defs>
      <g>
       <use style="stroke:#000000;stroke-width:0.8;" x="50.14375" xlink:href="#m04f9cfeaa1" y="240.795"/>
      </g>
     </g>
     <g id="text_7">
      <!-- 0.00 -->
      <g transform="translate(20.878125 244.594219)scale(0.1 -0.1)">
       <use xlink:href="#DejaVuSans-48"/>
       <use x="63.623047" xlink:href="#DejaVuSans-46"/>
       <use x="95.410156" xlink:href="#DejaVuSans-48"/>
       <use x="159.033203" xlink:href="#DejaVuSans-48"/>
      </g>
     </g>
    </g>
    <g id="ytick_2">
     <g id="line2d_7">
      <g>
       <use style="stroke:#000000;stroke-width:0.8;" x="50.14375" xlink:href="#m04f9cfeaa1" y="210.898206"/>
      </g>
     </g>
     <g id="text_8">
      <!-- 0.25 -->
      <defs>
       <path d="M 19.1875 8.296875 
L 53.609375 8.296875 
L 53.609375 0 
L 7.328125 0 
L 7.328125 8.296875 
Q 12.9375 14.109375 22.625 23.890625 
Q 32.328125 33.6875 34.8125 36.53125 
Q 39.546875 41.84375 41.421875 45.53125 
Q 43.3125 49.21875 43.3125 52.78125 
Q 43.3125 58.59375 39.234375 62.25 
Q 35.15625 65.921875 28.609375 65.921875 
Q 23.96875 65.921875 18.8125 64.3125 
Q 13.671875 62.703125 7.8125 59.421875 
L 7.8125 69.390625 
Q 13.765625 71.78125 18.9375 73 
Q 24.125 74.21875 28.421875 74.21875 
Q 39.75 74.21875 46.484375 68.546875 
Q 53.21875 62.890625 53.21875 53.421875 
Q 53.21875 48.921875 51.53125 44.890625 
Q 49.859375 40.875 45.40625 35.40625 
Q 44.1875 33.984375 37.640625 27.21875 
Q 31.109375 20.453125 19.1875 8.296875 
z
" id="DejaVuSans-50"/>
      </defs>
      <g transform="translate(20.878125 214.697425)scale(0.1 -0.1)">
       <use xlink:href="#DejaVuSans-48"/>
       <use x="63.623047" xlink:href="#DejaVuSans-46"/>
       <use x="95.410156" xlink:href="#DejaVuSans-50"/>
       <use x="159.033203" xlink:href="#DejaVuSans-53"/>
      </g>
     </g>
    </g>
    <g id="ytick_3">
     <g id="line2d_8">
      <g>
       <use style="stroke:#000000;stroke-width:0.8;" x="50.14375" xlink:href="#m04f9cfeaa1" y="181.001412"/>
      </g>
     </g>
     <g id="text_9">
      <!-- 0.50 -->
      <g transform="translate(20.878125 184.800631)scale(0.1 -0.1)">
       <use xlink:href="#DejaVuSans-48"/>
       <use x="63.623047" xlink:href="#DejaVuSans-46"/>
       <use x="95.410156" xlink:href="#DejaVuSans-53"/>
       <use x="159.033203" xlink:href="#DejaVuSans-48"/>
      </g>
     </g>
    </g>
    <g id="ytick_4">
     <g id="line2d_9">
      <g>
       <use style="stroke:#000000;stroke-width:0.8;" x="50.14375" xlink:href="#m04f9cfeaa1" y="151.104618"/>
      </g>
     </g>
     <g id="text_10">
      <!-- 0.75 -->
      <defs>
       <path d="M 8.203125 72.90625 
L 55.078125 72.90625 
L 55.078125 68.703125 
L 28.609375 0 
L 18.3125 0 
L 43.21875 64.59375 
L 8.203125 64.59375 
z
" id="DejaVuSans-55"/>
      </defs>
      <g transform="translate(20.878125 154.903837)scale(0.1 -0.1)">
       <use xlink:href="#DejaVuSans-48"/>
       <use x="63.623047" xlink:href="#DejaVuSans-46"/>
       <use x="95.410156" xlink:href="#DejaVuSans-55"/>
       <use x="159.033203" xlink:href="#DejaVuSans-53"/>
      </g>
     </g>
    </g>
    <g id="ytick_5">
     <g id="line2d_10">
      <g>
       <use style="stroke:#000000;stroke-width:0.8;" x="50.14375" xlink:href="#m04f9cfeaa1" y="121.207824"/>
      </g>
     </g>
     <g id="text_11">
      <!-- 1.00 -->
      <g transform="translate(20.878125 125.007042)scale(0.1 -0.1)">
       <use xlink:href="#DejaVuSans-49"/>
       <use x="63.623047" xlink:href="#DejaVuSans-46"/>
       <use x="95.410156" xlink:href="#DejaVuSans-48"/>
       <use x="159.033203" xlink:href="#DejaVuSans-48"/>
      </g>
     </g>
    </g>
    <g id="ytick_6">
     <g id="line2d_11">
      <g>
       <use style="stroke:#000000;stroke-width:0.8;" x="50.14375" xlink:href="#m04f9cfeaa1" y="91.31103"/>
      </g>
     </g>
     <g id="text_12">
      <!-- 1.25 -->
      <g transform="translate(20.878125 95.110248)scale(0.1 -0.1)">
       <use xlink:href="#DejaVuSans-49"/>
       <use x="63.623047" xlink:href="#DejaVuSans-46"/>
       <use x="95.410156" xlink:href="#DejaVuSans-50"/>
       <use x="159.033203" xlink:href="#DejaVuSans-53"/>
      </g>
     </g>
    </g>
    <g id="ytick_7">
     <g id="line2d_12">
      <g>
       <use style="stroke:#000000;stroke-width:0.8;" x="50.14375" xlink:href="#m04f9cfeaa1" y="61.414236"/>
      </g>
     </g>
     <g id="text_13">
      <!-- 1.50 -->
      <g transform="translate(20.878125 65.213454)scale(0.1 -0.1)">
       <use xlink:href="#DejaVuSans-49"/>
       <use x="63.623047" xlink:href="#DejaVuSans-46"/>
       <use x="95.410156" xlink:href="#DejaVuSans-53"/>
       <use x="159.033203" xlink:href="#DejaVuSans-48"/>
      </g>
     </g>
    </g>
    <g id="ytick_8">
     <g id="line2d_13">
      <g>
       <use style="stroke:#000000;stroke-width:0.8;" x="50.14375" xlink:href="#m04f9cfeaa1" y="31.517441"/>
      </g>
     </g>
     <g id="text_14">
      <!-- 1.75 -->
      <g transform="translate(20.878125 35.31666)scale(0.1 -0.1)">
       <use xlink:href="#DejaVuSans-49"/>
       <use x="63.623047" xlink:href="#DejaVuSans-46"/>
       <use x="95.410156" xlink:href="#DejaVuSans-55"/>
       <use x="159.033203" xlink:href="#DejaVuSans-53"/>
      </g>
     </g>
    </g>
    <g id="text_15">
     <!-- Density -->
     <defs>
      <path d="M 19.671875 64.796875 
L 19.671875 8.109375 
L 31.59375 8.109375 
Q 46.6875 8.109375 53.6875 14.9375 
Q 60.6875 21.78125 60.6875 36.53125 
Q 60.6875 51.171875 53.6875 57.984375 
Q 46.6875 64.796875 31.59375 64.796875 
z
M 9.8125 72.90625 
L 30.078125 72.90625 
Q 51.265625 72.90625 61.171875 64.09375 
Q 71.09375 55.28125 71.09375 36.53125 
Q 71.09375 17.671875 61.125 8.828125 
Q 51.171875 0 30.078125 0 
L 9.8125 0 
z
" id="DejaVuSans-68"/>
      <path d="M 54.890625 33.015625 
L 54.890625 0 
L 45.90625 0 
L 45.90625 32.71875 
Q 45.90625 40.484375 42.875 44.328125 
Q 39.84375 48.1875 33.796875 48.1875 
Q 26.515625 48.1875 22.3125 43.546875 
Q 18.109375 38.921875 18.109375 30.90625 
L 18.109375 0 
L 9.078125 0 
L 9.078125 54.6875 
L 18.109375 54.6875 
L 18.109375 46.1875 
Q 21.34375 51.125 25.703125 53.5625 
Q 30.078125 56 35.796875 56 
Q 45.21875 56 50.046875 50.171875 
Q 54.890625 44.34375 54.890625 33.015625 
z
" id="DejaVuSans-110"/>
      <path d="M 44.28125 53.078125 
L 44.28125 44.578125 
Q 40.484375 46.53125 36.375 47.5 
Q 32.28125 48.484375 27.875 48.484375 
Q 21.1875 48.484375 17.84375 46.4375 
Q 14.5 44.390625 14.5 40.28125 
Q 14.5 37.15625 16.890625 35.375 
Q 19.28125 33.59375 26.515625 31.984375 
L 29.59375 31.296875 
Q 39.15625 29.25 43.1875 25.515625 
Q 47.21875 21.78125 47.21875 15.09375 
Q 47.21875 7.46875 41.1875 3.015625 
Q 35.15625 -1.421875 24.609375 -1.421875 
Q 20.21875 -1.421875 15.453125 -0.5625 
Q 10.6875 0.296875 5.421875 2 
L 5.421875 11.28125 
Q 10.40625 8.6875 15.234375 7.390625 
Q 20.0625 6.109375 24.8125 6.109375 
Q 31.15625 6.109375 34.5625 8.28125 
Q 37.984375 10.453125 37.984375 14.40625 
Q 37.984375 18.0625 35.515625 20.015625 
Q 33.0625 21.96875 24.703125 23.78125 
L 21.578125 24.515625 
Q 13.234375 26.265625 9.515625 29.90625 
Q 5.8125 33.546875 5.8125 39.890625 
Q 5.8125 47.609375 11.28125 51.796875 
Q 16.75 56 26.8125 56 
Q 31.78125 56 36.171875 55.265625 
Q 40.578125 54.546875 44.28125 53.078125 
z
" id="DejaVuSans-115"/>
      <path d="M 9.421875 54.6875 
L 18.40625 54.6875 
L 18.40625 0 
L 9.421875 0 
z
M 9.421875 75.984375 
L 18.40625 75.984375 
L 18.40625 64.59375 
L 9.421875 64.59375 
z
" id="DejaVuSans-105"/>
      <path d="M 18.3125 70.21875 
L 18.3125 54.6875 
L 36.8125 54.6875 
L 36.8125 47.703125 
L 18.3125 47.703125 
L 18.3125 18.015625 
Q 18.3125 11.328125 20.140625 9.421875 
Q 21.96875 7.515625 27.59375 7.515625 
L 36.8125 7.515625 
L 36.8125 0 
L 27.59375 0 
Q 17.1875 0 13.234375 3.875 
Q 9.28125 7.765625 9.28125 18.015625 
L 9.28125 47.703125 
L 2.6875 47.703125 
L 2.6875 54.6875 
L 9.28125 54.6875 
L 9.28125 70.21875 
z
" id="DejaVuSans-116"/>
      <path d="M 32.171875 -5.078125 
Q 28.375 -14.84375 24.75 -17.8125 
Q 21.140625 -20.796875 15.09375 -20.796875 
L 7.90625 -20.796875 
L 7.90625 -13.28125 
L 13.1875 -13.28125 
Q 16.890625 -13.28125 18.9375 -11.515625 
Q 21 -9.765625 23.484375 -3.21875 
L 25.09375 0.875 
L 2.984375 54.6875 
L 12.5 54.6875 
L 29.59375 11.921875 
L 46.6875 54.6875 
L 56.203125 54.6875 
z
" id="DejaVuSans-121"/>
     </defs>
     <g transform="translate(14.798438 151.083594)rotate(-90)scale(0.1 -0.1)">
      <use xlink:href="#DejaVuSans-68"/>
      <use x="77.001953" xlink:href="#DejaVuSans-101"/>
      <use x="138.525391" xlink:href="#DejaVuSans-110"/>
      <use x="201.904297" xlink:href="#DejaVuSans-115"/>
      <use x="254.003906" xlink:href="#DejaVuSans-105"/>
      <use x="281.787109" xlink:href="#DejaVuSans-116"/>
      <use x="320.996094" xlink:href="#DejaVuSans-121"/>
     </g>
    </g>
    <g id="text_16">
     <!-- 1e−8 -->
     <g transform="translate(50.14375 20.355)scale(0.1 -0.1)">
      <use xlink:href="#DejaVuSans-49"/>
      <use x="63.623047" xlink:href="#DejaVuSans-101"/>
      <use x="125.146484" xlink:href="#DejaVuSans-8722"/>
      <use x="208.935547" xlink:href="#DejaVuSans-56"/>
     </g>
    </g>
   </g>
   <g id="line2d_14">
    <path clip-path="url(#p3337699711)" d="M 65.361932 239.627207 
L 68.420863 239.14279 
L 71.479794 238.486235 
L 74.538725 237.608472 
L 77.597656 236.451011 
L 80.656587 234.945713 
L 83.715518 233.015141 
L 86.774449 230.573676 
L 88.303914 229.132841 
L 89.83338 227.529535 
L 91.362845 225.751824 
L 92.892311 223.787829 
L 94.421776 221.625884 
L 95.951242 219.254704 
L 97.480708 216.663575 
L 99.010173 213.842546 
L 102.069104 207.476096 
L 105.128035 200.099242 
L 108.186966 191.682079 
L 111.245897 182.227767 
L 114.304828 171.778613 
L 117.363759 160.420764 
L 120.42269 148.286928 
L 125.011087 129.036105 
L 134.18788 89.858495 
L 137.246811 77.687247 
L 140.305742 66.484393 
L 143.364673 56.550301 
L 144.894138 52.145251 
L 146.423604 48.156012 
L 147.953069 44.609774 
L 149.482535 41.5304 
L 151.012 38.93816 
L 152.541466 36.849507 
L 154.070931 35.276913 
L 155.600397 34.228761 
L 157.129862 33.709286 
L 158.659328 33.718582 
L 160.188793 34.252662 
L 161.718259 35.303567 
L 163.247724 36.859527 
L 164.77719 38.905174 
L 166.306655 41.421781 
L 167.836121 44.387553 
L 169.365586 47.777936 
L 170.895052 51.565951 
L 172.424517 55.722546 
L 175.483448 65.017076 
L 178.54238 75.401449 
L 181.601311 86.605474 
L 186.189707 104.361051 
L 195.3665 140.257418 
L 199.954897 157.026654 
L 203.013828 167.421062 
L 206.072759 177.0681 
L 209.13169 185.898142 
L 212.190621 193.867914 
L 215.249552 200.957442 
L 218.308483 207.166669 
L 221.367414 212.511972 
L 224.426345 217.022759 
L 225.95581 218.977179 
L 227.485276 220.738317 
L 229.014741 222.31217 
L 230.544207 223.705034 
L 232.073672 224.923442 
L 233.603138 225.974111 
L 235.132603 226.863905 
L 236.662069 227.599797 
L 238.191534 228.188845 
L 239.721 228.638179 
L 241.250465 228.954984 
L 242.779931 229.146501 
L 245.838862 229.182924 
L 248.897793 228.806624 
L 251.956724 228.078092 
L 255.015655 227.059463 
L 258.074586 225.814726 
L 262.662983 223.667955 
L 271.839776 219.198975 
L 274.898707 217.896636 
L 277.957638 216.786187 
L 281.016569 215.916013 
L 284.0755 215.324601 
L 287.134431 215.03889 
L 290.193362 215.073149 
L 293.252293 215.428507 
L 296.311224 216.093208 
L 299.370155 217.043597 
L 302.429086 218.245759 
L 305.488017 219.657706 
L 310.076413 222.064199 
L 326.900534 231.386283 
L 331.48893 233.501971 
L 336.077327 235.301799 
L 340.665724 236.774475 
L 345.25412 237.935568 
L 349.842517 238.818866 
L 354.430913 239.467934 
L 360.548775 240.048647 
L 366.666637 240.396118 
L 369.725568 240.50892 
L 369.725568 240.50892 
" style="fill:none;stroke:#1f77b4;stroke-linecap:square;stroke-width:1.5;"/>
   </g>
   <g id="patch_3">
    <path d="M 50.14375 240.795 
L 50.14375 23.355 
" style="fill:none;stroke:#000000;stroke-linecap:square;stroke-linejoin:miter;stroke-width:0.8;"/>
   </g>
   <g id="patch_4">
    <path d="M 384.94375 240.795 
L 384.94375 23.355 
" style="fill:none;stroke:#000000;stroke-linecap:square;stroke-linejoin:miter;stroke-width:0.8;"/>
   </g>
   <g id="patch_5">
    <path d="M 50.14375 240.795 
L 384.94375 240.795 
" style="fill:none;stroke:#000000;stroke-linecap:square;stroke-linejoin:miter;stroke-width:0.8;"/>
   </g>
   <g id="patch_6">
    <path d="M 50.14375 23.355 
L 384.94375 23.355 
" style="fill:none;stroke:#000000;stroke-linecap:square;stroke-linejoin:miter;stroke-width:0.8;"/>
   </g>
   <g id="text_17">
    <!-- Phân phối lương tháng những người xem bói -->
    <defs>
     <path d="M 19.671875 64.796875 
L 19.671875 37.40625 
L 32.078125 37.40625 
Q 38.96875 37.40625 42.71875 40.96875 
Q 46.484375 44.53125 46.484375 51.125 
Q 46.484375 57.671875 42.71875 61.234375 
Q 38.96875 64.796875 32.078125 64.796875 
z
M 9.8125 72.90625 
L 32.078125 72.90625 
Q 44.34375 72.90625 50.609375 67.359375 
Q 56.890625 61.8125 56.890625 51.125 
Q 56.890625 40.328125 50.609375 34.8125 
Q 44.34375 29.296875 32.078125 29.296875 
L 19.671875 29.296875 
L 19.671875 0 
L 9.8125 0 
z
" id="DejaVuSans-80"/>
     <path d="M 54.890625 33.015625 
L 54.890625 0 
L 45.90625 0 
L 45.90625 32.71875 
Q 45.90625 40.484375 42.875 44.328125 
Q 39.84375 48.1875 33.796875 48.1875 
Q 26.515625 48.1875 22.3125 43.546875 
Q 18.109375 38.921875 18.109375 30.90625 
L 18.109375 0 
L 9.078125 0 
L 9.078125 75.984375 
L 18.109375 75.984375 
L 18.109375 46.1875 
Q 21.34375 51.125 25.703125 53.5625 
Q 30.078125 56 35.796875 56 
Q 45.21875 56 50.046875 50.171875 
Q 54.890625 44.34375 54.890625 33.015625 
z
" id="DejaVuSans-104"/>
     <path d="M 34.28125 27.484375 
Q 23.390625 27.484375 19.1875 25 
Q 14.984375 22.515625 14.984375 16.5 
Q 14.984375 11.71875 18.140625 8.90625 
Q 21.296875 6.109375 26.703125 6.109375 
Q 34.1875 6.109375 38.703125 11.40625 
Q 43.21875 16.703125 43.21875 25.484375 
L 43.21875 27.484375 
z
M 52.203125 31.203125 
L 52.203125 0 
L 43.21875 0 
L 43.21875 8.296875 
Q 40.140625 3.328125 35.546875 0.953125 
Q 30.953125 -1.421875 24.3125 -1.421875 
Q 15.921875 -1.421875 10.953125 3.296875 
Q 6 8.015625 6 15.921875 
Q 6 25.140625 12.171875 29.828125 
Q 18.359375 34.515625 30.609375 34.515625 
L 43.21875 34.515625 
L 43.21875 35.40625 
Q 43.21875 41.609375 39.140625 45 
Q 35.0625 48.390625 27.6875 48.390625 
Q 23 48.390625 18.546875 47.265625 
Q 14.109375 46.140625 10.015625 43.890625 
L 10.015625 52.203125 
Q 14.9375 54.109375 19.578125 55.046875 
Q 24.21875 56 28.609375 56 
Q 40.484375 56 46.34375 49.84375 
Q 52.203125 43.703125 52.203125 31.203125 
z
M 25.390625 79.984375 
L 32.625 79.984375 
L 44.578125 61.625 
L 37.796875 61.625 
L 29 73.578125 
L 20.21875 61.625 
L 13.421875 61.625 
z
" id="DejaVuSans-226"/>
     <path id="DejaVuSans-32"/>
     <path d="M 18.109375 8.203125 
L 18.109375 -20.796875 
L 9.078125 -20.796875 
L 9.078125 54.6875 
L 18.109375 54.6875 
L 18.109375 46.390625 
Q 20.953125 51.265625 25.265625 53.625 
Q 29.59375 56 35.59375 56 
Q 45.5625 56 51.78125 48.09375 
Q 58.015625 40.1875 58.015625 27.296875 
Q 58.015625 14.40625 51.78125 6.484375 
Q 45.5625 -1.421875 35.59375 -1.421875 
Q 29.59375 -1.421875 25.265625 0.953125 
Q 20.953125 3.328125 18.109375 8.203125 
z
M 48.6875 27.296875 
Q 48.6875 37.203125 44.609375 42.84375 
Q 40.53125 48.484375 33.40625 48.484375 
Q 26.265625 48.484375 22.1875 42.84375 
Q 18.109375 37.203125 18.109375 27.296875 
Q 18.109375 17.390625 22.1875 11.75 
Q 26.265625 6.109375 33.40625 6.109375 
Q 40.53125 6.109375 44.609375 11.75 
Q 48.6875 17.390625 48.6875 27.296875 
z
" id="DejaVuSans-112"/>
     <path d="M 25.984375 74.609375 
L 35.15625 74.609375 
L 45.453125 61.625 
L 38.671875 61.625 
L 30.5625 70.3125 
L 22.46875 61.625 
L 15.671875 61.625 
z
M 51.03125 84.625 
L 60.0625 84.625 
L 48.921875 71.734375 
L 41.453125 71.734375 
z
M 30.609375 48.390625 
Q 23.390625 48.390625 19.1875 42.75 
Q 14.984375 37.109375 14.984375 27.296875 
Q 14.984375 17.484375 19.15625 11.84375 
Q 23.34375 6.203125 30.609375 6.203125 
Q 37.796875 6.203125 41.984375 11.859375 
Q 46.1875 17.53125 46.1875 27.296875 
Q 46.1875 37.015625 41.984375 42.703125 
Q 37.796875 48.390625 30.609375 48.390625 
z
M 30.609375 56 
Q 42.328125 56 49.015625 48.375 
Q 55.71875 40.765625 55.71875 27.296875 
Q 55.71875 13.875 49.015625 6.21875 
Q 42.328125 -1.421875 30.609375 -1.421875 
Q 18.84375 -1.421875 12.171875 6.21875 
Q 5.515625 13.875 5.515625 27.296875 
Q 5.515625 40.765625 12.171875 48.375 
Q 18.84375 56 30.609375 56 
z
" id="DejaVuSans-7889"/>
     <path d="M 9.421875 75.984375 
L 18.40625 75.984375 
L 18.40625 0 
L 9.421875 0 
z
" id="DejaVuSans-108"/>
     <path d="M 48.34375 48.53125 
L 48.34375 54.34375 
Q 51.3125 52.140625 53.453125 51.09375 
Q 55.609375 50.046875 57.125 50.046875 
Q 59.375 50.046875 60.5 51.390625 
Q 61.625 52.734375 61.625 55.359375 
Q 61.625 56.921875 61.25 58.4375 
Q 60.890625 59.953125 60.15625 61.46875 
L 66.65625 61.46875 
Q 67.140625 59.609375 67.375 57.953125 
Q 67.625 56.296875 67.625 54.828125 
Q 67.625 48.875 65.5 46.0625 
Q 63.375 43.25 58.84375 43.25 
Q 56.5 43.25 53.9375 44.546875 
Q 51.375 45.84375 48.34375 48.53125 
z
M 8.59375 21.578125 
L 8.59375 54.6875 
L 17.578125 54.6875 
L 17.578125 21.921875 
Q 17.578125 14.15625 20.609375 10.265625 
Q 23.640625 6.390625 29.6875 6.390625 
Q 36.96875 6.390625 41.1875 11.03125 
Q 45.40625 15.671875 45.40625 23.6875 
L 45.40625 54.6875 
L 54.390625 54.6875 
L 54.390625 0 
L 45.40625 0 
L 45.40625 8.40625 
Q 42.140625 3.421875 37.8125 1 
Q 33.5 -1.421875 27.78125 -1.421875 
Q 18.359375 -1.421875 13.46875 4.4375 
Q 8.59375 10.296875 8.59375 21.578125 
z
M 31.203125 56 
z
" id="DejaVuSans-432"/>
     <path d="M 41.015625 48.53125 
L 41.015625 54.34375 
Q 44 52.140625 46.140625 51.09375 
Q 48.296875 50.046875 49.8125 50.046875 
Q 52.046875 50.046875 53.171875 51.390625 
Q 54.296875 52.734375 54.296875 55.359375 
Q 54.296875 56.921875 53.921875 58.4375 
Q 53.5625 59.953125 52.828125 61.46875 
L 59.328125 61.46875 
Q 59.8125 59.609375 60.046875 57.953125 
Q 60.296875 56.296875 60.296875 54.828125 
Q 60.296875 48.875 58.171875 46.0625 
Q 56.0625 43.25 51.515625 43.25 
Q 49.171875 43.25 46.609375 44.546875 
Q 44.046875 45.84375 41.015625 48.53125 
z
M 30.859375 48.390625 
Q 23.640625 48.390625 19.4375 42.75 
Q 15.234375 37.109375 15.234375 27.296875 
Q 15.234375 17.484375 19.40625 11.84375 
Q 23.578125 6.203125 30.859375 6.203125 
Q 38.03125 6.203125 42.234375 11.859375 
Q 46.4375 17.53125 46.4375 27.296875 
Q 46.4375 37.015625 42.234375 42.703125 
Q 38.03125 48.390625 30.859375 48.390625 
z
M 30.859375 56 
Q 42.578125 56 49.265625 48.375 
Q 55.953125 40.765625 55.953125 27.296875 
Q 55.953125 13.875 49.265625 6.21875 
Q 42.578125 -1.421875 30.859375 -1.421875 
Q 19.09375 -1.421875 12.421875 6.21875 
Q 5.765625 13.875 5.765625 27.296875 
Q 5.765625 40.765625 12.421875 48.375 
Q 19.09375 56 30.859375 56 
z
" id="DejaVuSans-417"/>
     <path d="M 45.40625 27.984375 
Q 45.40625 37.75 41.375 43.109375 
Q 37.359375 48.484375 30.078125 48.484375 
Q 22.859375 48.484375 18.828125 43.109375 
Q 14.796875 37.75 14.796875 27.984375 
Q 14.796875 18.265625 18.828125 12.890625 
Q 22.859375 7.515625 30.078125 7.515625 
Q 37.359375 7.515625 41.375 12.890625 
Q 45.40625 18.265625 45.40625 27.984375 
z
M 54.390625 6.78125 
Q 54.390625 -7.171875 48.1875 -13.984375 
Q 42 -20.796875 29.203125 -20.796875 
Q 24.46875 -20.796875 20.265625 -20.09375 
Q 16.0625 -19.390625 12.109375 -17.921875 
L 12.109375 -9.1875 
Q 16.0625 -11.328125 19.921875 -12.34375 
Q 23.78125 -13.375 27.78125 -13.375 
Q 36.625 -13.375 41.015625 -8.765625 
Q 45.40625 -4.15625 45.40625 5.171875 
L 45.40625 9.625 
Q 42.625 4.78125 38.28125 2.390625 
Q 33.9375 0 27.875 0 
Q 17.828125 0 11.671875 7.65625 
Q 5.515625 15.328125 5.515625 27.984375 
Q 5.515625 40.671875 11.671875 48.328125 
Q 17.828125 56 27.875 56 
Q 33.9375 56 38.28125 53.609375 
Q 42.625 51.21875 45.40625 46.390625 
L 45.40625 54.6875 
L 54.390625 54.6875 
z
" id="DejaVuSans-103"/>
     <path d="M 34.28125 27.484375 
Q 23.390625 27.484375 19.1875 25 
Q 14.984375 22.515625 14.984375 16.5 
Q 14.984375 11.71875 18.140625 8.90625 
Q 21.296875 6.109375 26.703125 6.109375 
Q 34.1875 6.109375 38.703125 11.40625 
Q 43.21875 16.703125 43.21875 25.484375 
L 43.21875 27.484375 
z
M 52.203125 31.203125 
L 52.203125 0 
L 43.21875 0 
L 43.21875 8.296875 
Q 40.140625 3.328125 35.546875 0.953125 
Q 30.953125 -1.421875 24.3125 -1.421875 
Q 15.921875 -1.421875 10.953125 3.296875 
Q 6 8.015625 6 15.921875 
Q 6 25.140625 12.171875 29.828125 
Q 18.359375 34.515625 30.609375 34.515625 
L 43.21875 34.515625 
L 43.21875 35.40625 
Q 43.21875 41.609375 39.140625 45 
Q 35.0625 48.390625 27.6875 48.390625 
Q 23 48.390625 18.546875 47.265625 
Q 14.109375 46.140625 10.015625 43.890625 
L 10.015625 52.203125 
Q 14.9375 54.109375 19.578125 55.046875 
Q 24.21875 56 28.609375 56 
Q 40.484375 56 46.34375 49.84375 
Q 52.203125 43.703125 52.203125 31.203125 
z
M 35.796875 79.984375 
L 45.515625 79.984375 
L 29.59375 61.625 
L 22.125 61.625 
z
" id="DejaVuSans-225"/>
     <path d="M 31.0625 66.890625 
L 28.265625 69.578125 
Q 27.203125 70.5625 26.390625 71.015625 
Q 25.59375 71.484375 24.953125 71.484375 
Q 23.09375 71.484375 22.21875 69.703125 
Q 21.34375 67.921875 21.234375 63.921875 
L 15.140625 63.921875 
Q 15.234375 70.515625 17.71875 74.09375 
Q 20.21875 77.6875 24.65625 77.6875 
Q 26.515625 77.6875 28.078125 77 
Q 29.640625 76.3125 31.453125 74.703125 
L 34.234375 72.015625 
Q 35.296875 71.046875 36.109375 70.578125 
Q 36.921875 70.125 37.546875 70.125 
Q 39.40625 70.125 40.28125 71.90625 
Q 41.15625 73.6875 41.265625 77.6875 
L 47.359375 77.6875 
Q 47.265625 71.09375 44.765625 67.5 
Q 42.28125 63.921875 37.84375 63.921875 
Q 35.984375 63.921875 34.421875 64.59375 
Q 32.859375 65.28125 31.0625 66.890625 
z
M 48.34375 48.53125 
L 48.34375 54.34375 
Q 51.3125 52.140625 53.453125 51.09375 
Q 55.609375 50.046875 57.125 50.046875 
Q 59.375 50.046875 60.5 51.390625 
Q 61.625 52.734375 61.625 55.359375 
Q 61.625 56.921875 61.25 58.4375 
Q 60.890625 59.953125 60.15625 61.46875 
L 66.65625 61.46875 
Q 67.140625 59.609375 67.375 57.953125 
Q 67.625 56.296875 67.625 54.828125 
Q 67.625 48.875 65.5 46.0625 
Q 63.375 43.25 58.84375 43.25 
Q 56.5 43.25 53.9375 44.546875 
Q 51.375 45.84375 48.34375 48.53125 
z
M 8.59375 21.578125 
L 8.59375 54.6875 
L 17.578125 54.6875 
L 17.578125 21.921875 
Q 17.578125 14.15625 20.609375 10.265625 
Q 23.640625 6.390625 29.6875 6.390625 
Q 36.96875 6.390625 41.1875 11.03125 
Q 45.40625 15.671875 45.40625 23.6875 
L 45.40625 54.6875 
L 54.390625 54.6875 
L 54.390625 0 
L 45.40625 0 
L 45.40625 8.40625 
Q 42.140625 3.421875 37.8125 1 
Q 33.5 -1.421875 27.78125 -1.421875 
Q 18.359375 -1.421875 13.46875 4.4375 
Q 8.59375 10.296875 8.59375 21.578125 
z
M 31.203125 56 
z
" id="DejaVuSans-7919"/>
     <path d="M 23.53125 79.984375 
L 37.3125 61.71875 
L 29.828125 61.71875 
L 13.921875 79.984375 
z
M 41.015625 48.53125 
L 41.015625 54.34375 
Q 44 52.140625 46.140625 51.09375 
Q 48.296875 50.046875 49.8125 50.046875 
Q 52.046875 50.046875 53.171875 51.390625 
Q 54.296875 52.734375 54.296875 55.359375 
Q 54.296875 56.921875 53.921875 58.4375 
Q 53.5625 59.953125 52.828125 61.46875 
L 59.328125 61.46875 
Q 59.8125 59.609375 60.046875 57.953125 
Q 60.296875 56.296875 60.296875 54.828125 
Q 60.296875 48.875 58.171875 46.0625 
Q 56.0625 43.25 51.515625 43.25 
Q 49.171875 43.25 46.609375 44.546875 
Q 44.046875 45.84375 41.015625 48.53125 
z
M 30.859375 48.390625 
Q 23.640625 48.390625 19.4375 42.75 
Q 15.234375 37.109375 15.234375 27.296875 
Q 15.234375 17.484375 19.40625 11.84375 
Q 23.578125 6.203125 30.859375 6.203125 
Q 38.03125 6.203125 42.234375 11.859375 
Q 46.4375 17.53125 46.4375 27.296875 
Q 46.4375 37.015625 42.234375 42.703125 
Q 38.03125 48.390625 30.859375 48.390625 
z
M 30.859375 56 
Q 42.578125 56 49.265625 48.375 
Q 55.953125 40.765625 55.953125 27.296875 
Q 55.953125 13.875 49.265625 6.21875 
Q 42.578125 -1.421875 30.859375 -1.421875 
Q 19.09375 -1.421875 12.421875 6.21875 
Q 5.765625 13.875 5.765625 27.296875 
Q 5.765625 40.765625 12.421875 48.375 
Q 19.09375 56 30.859375 56 
z
" id="DejaVuSans-7901"/>
     <path d="M 54.890625 54.6875 
L 35.109375 28.078125 
L 55.90625 0 
L 45.3125 0 
L 29.390625 21.484375 
L 13.484375 0 
L 2.875 0 
L 24.125 28.609375 
L 4.6875 54.6875 
L 15.28125 54.6875 
L 29.78125 35.203125 
L 44.28125 54.6875 
z
" id="DejaVuSans-120"/>
     <path d="M 52 44.1875 
Q 55.375 50.25 60.0625 53.125 
Q 64.75 56 71.09375 56 
Q 79.640625 56 84.28125 50.015625 
Q 88.921875 44.046875 88.921875 33.015625 
L 88.921875 0 
L 79.890625 0 
L 79.890625 32.71875 
Q 79.890625 40.578125 77.09375 44.375 
Q 74.3125 48.1875 68.609375 48.1875 
Q 61.625 48.1875 57.5625 43.546875 
Q 53.515625 38.921875 53.515625 30.90625 
L 53.515625 0 
L 44.484375 0 
L 44.484375 32.71875 
Q 44.484375 40.625 41.703125 44.40625 
Q 38.921875 48.1875 33.109375 48.1875 
Q 26.21875 48.1875 22.15625 43.53125 
Q 18.109375 38.875 18.109375 30.90625 
L 18.109375 0 
L 9.078125 0 
L 9.078125 54.6875 
L 18.109375 54.6875 
L 18.109375 46.1875 
Q 21.1875 51.21875 25.484375 53.609375 
Q 29.78125 56 35.6875 56 
Q 41.65625 56 45.828125 52.96875 
Q 50 49.953125 52 44.1875 
z
" id="DejaVuSans-109"/>
     <path d="M 48.6875 27.296875 
Q 48.6875 37.203125 44.609375 42.84375 
Q 40.53125 48.484375 33.40625 48.484375 
Q 26.265625 48.484375 22.1875 42.84375 
Q 18.109375 37.203125 18.109375 27.296875 
Q 18.109375 17.390625 22.1875 11.75 
Q 26.265625 6.109375 33.40625 6.109375 
Q 40.53125 6.109375 44.609375 11.75 
Q 48.6875 17.390625 48.6875 27.296875 
z
M 18.109375 46.390625 
Q 20.953125 51.265625 25.265625 53.625 
Q 29.59375 56 35.59375 56 
Q 45.5625 56 51.78125 48.09375 
Q 58.015625 40.1875 58.015625 27.296875 
Q 58.015625 14.40625 51.78125 6.484375 
Q 45.5625 -1.421875 35.59375 -1.421875 
Q 29.59375 -1.421875 25.265625 0.953125 
Q 20.953125 3.328125 18.109375 8.203125 
L 18.109375 0 
L 9.078125 0 
L 9.078125 75.984375 
L 18.109375 75.984375 
z
" id="DejaVuSans-98"/>
     <path d="M 30.609375 48.390625 
Q 23.390625 48.390625 19.1875 42.75 
Q 14.984375 37.109375 14.984375 27.296875 
Q 14.984375 17.484375 19.15625 11.84375 
Q 23.34375 6.203125 30.609375 6.203125 
Q 37.796875 6.203125 41.984375 11.859375 
Q 46.1875 17.53125 46.1875 27.296875 
Q 46.1875 37.015625 41.984375 42.703125 
Q 37.796875 48.390625 30.609375 48.390625 
z
M 30.609375 56 
Q 42.328125 56 49.015625 48.375 
Q 55.71875 40.765625 55.71875 27.296875 
Q 55.71875 13.875 49.015625 6.21875 
Q 42.328125 -1.421875 30.609375 -1.421875 
Q 18.84375 -1.421875 12.171875 6.21875 
Q 5.515625 13.875 5.515625 27.296875 
Q 5.515625 40.765625 12.171875 48.375 
Q 18.84375 56 30.609375 56 
z
M 37.40625 79.984375 
L 47.125 79.984375 
L 31.203125 61.625 
L 23.734375 61.625 
z
" id="DejaVuSans-243"/>
    </defs>
    <g transform="translate(84.3325 17.355)scale(0.12 -0.12)">
     <use xlink:href="#DejaVuSans-80"/>
     <use x="60.302734" xlink:href="#DejaVuSans-104"/>
     <use x="123.681641" xlink:href="#DejaVuSans-226"/>
     <use x="184.960938" xlink:href="#DejaVuSans-110"/>
     <use x="248.339844" xlink:href="#DejaVuSans-32"/>
     <use x="280.126953" xlink:href="#DejaVuSans-112"/>
     <use x="343.603516" xlink:href="#DejaVuSans-104"/>
     <use x="406.982422" xlink:href="#DejaVuSans-7889"/>
     <use x="468.164062" xlink:href="#DejaVuSans-105"/>
     <use x="495.947266" xlink:href="#DejaVuSans-32"/>
     <use x="527.734375" xlink:href="#DejaVuSans-108"/>
     <use x="555.517578" xlink:href="#DejaVuSans-432"/>
     <use x="618.896484" xlink:href="#DejaVuSans-417"/>
     <use x="680.078125" xlink:href="#DejaVuSans-110"/>
     <use x="743.457031" xlink:href="#DejaVuSans-103"/>
     <use x="806.933594" xlink:href="#DejaVuSans-32"/>
     <use x="838.720703" xlink:href="#DejaVuSans-116"/>
     <use x="877.929688" xlink:href="#DejaVuSans-104"/>
     <use x="941.308594" xlink:href="#DejaVuSans-225"/>
     <use x="1002.587891" xlink:href="#DejaVuSans-110"/>
     <use x="1065.966797" xlink:href="#DejaVuSans-103"/>
     <use x="1129.443359" xlink:href="#DejaVuSans-32"/>
     <use x="1161.230469" xlink:href="#DejaVuSans-110"/>
     <use x="1224.609375" xlink:href="#DejaVuSans-104"/>
     <use x="1287.988281" xlink:href="#DejaVuSans-7919"/>
     <use x="1351.367188" xlink:href="#DejaVuSans-110"/>
     <use x="1414.746094" xlink:href="#DejaVuSans-103"/>
     <use x="1478.222656" xlink:href="#DejaVuSans-32"/>
     <use x="1510.009766" xlink:href="#DejaVuSans-110"/>
     <use x="1573.388672" xlink:href="#DejaVuSans-103"/>
     <use x="1636.865234" xlink:href="#DejaVuSans-432"/>
     <use x="1700.244141" xlink:href="#DejaVuSans-7901"/>
     <use x="1761.425781" xlink:href="#DejaVuSans-105"/>
     <use x="1789.208984" xlink:href="#DejaVuSans-32"/>
     <use x="1820.996094" xlink:href="#DejaVuSans-120"/>
     <use x="1877.050781" xlink:href="#DejaVuSans-101"/>
     <use x="1938.574219" xlink:href="#DejaVuSans-109"/>
     <use x="2035.986328" xlink:href="#DejaVuSans-32"/>
     <use x="2067.773438" xlink:href="#DejaVuSans-98"/>
     <use x="2131.25" xlink:href="#DejaVuSans-243"/>
     <use x="2192.431641" xlink:href="#DejaVuSans-105"/>
    </g>
   </g>
  </g>
 </g>
 <defs>
  <clipPath id="p3337699711">
   <rect height="217.44" width="334.8" x="50.14375" y="23.355"/>
  </clipPath>
 </defs>
</svg>
